<svg width="33" height="33" viewBox="0 0 33 33" fill="none" xmlns="http://www.w3.org/2000/svg">
<path d="M12.3759 31.3897C13.1145 31.3897 13.7133 30.7441 13.7133 29.9478C13.7133 29.1514 13.1145 28.5058 12.3759 28.5058C11.6373 28.5058 11.0386 29.1514 11.0386 29.9478C11.0386 30.7441 11.6373 31.3897 12.3759 31.3897Z" stroke="white" stroke-width="2" stroke-linecap="round" stroke-linejoin="round"/>
<path d="M27.0869 31.3897C27.8255 31.3897 28.4242 30.7441 28.4242 29.9478C28.4242 29.1514 27.8255 28.5058 27.0869 28.5058C26.3483 28.5058 25.7495 29.1514 25.7495 29.9478C25.7495 30.7441 26.3483 31.3897 27.0869 31.3897Z" stroke="white" stroke-width="2" stroke-linecap="round" stroke-linejoin="round"/>
<path d="M1.67725 1.10809H7.02668L10.6108 20.4163C10.7331 21.0802 11.0681 21.6765 11.557 22.1009C12.046 22.5254 12.6579 22.7508 13.2855 22.7379H26.2846C26.9123 22.7508 27.5241 22.5254 28.0131 22.1009C28.5021 21.6765 28.8371 21.0802 28.9593 20.4163L31.0991 8.31802H8.36404" stroke="white" stroke-width="2" stroke-linecap="round" stroke-linejoin="round"/>
</svg>
