<svg width="173" height="26" viewBox="0 0 173 26" fill="none" xmlns="http://www.w3.org/2000/svg">
<path d="M23.625 13C23.625 18.8125 19.3594 23.6406 13.7812 24.4844V16.375H16.5L17.0156 13H13.7812V10.8438C13.7812 9.90625 14.25 9.01562 15.7031 9.01562H17.1562V6.15625C17.1562 6.15625 15.8438 5.92188 14.5312 5.92188C11.9062 5.92188 10.1719 7.5625 10.1719 10.4688V13H7.21875V16.375H10.1719V24.4844C4.59375 23.6406 0.375 18.8125 0.375 13C0.375 6.57812 5.57812 1.375 12 1.375C18.4219 1.375 23.625 6.57812 23.625 13Z" fill="#00D276"/>
<path d="M66.6294 8.125C66.6294 8.35938 66.6294 8.54688 66.6294 8.78125C66.6294 15.2969 61.7075 22.75 52.6606 22.75C49.8481 22.75 47.27 21.9531 45.1138 20.5469C45.4888 20.5938 45.8638 20.6406 46.2856 20.6406C48.5825 20.6406 50.6919 19.8438 52.3794 18.5312C50.2231 18.4844 48.395 17.0781 47.7856 15.1094C48.1138 15.1562 48.395 15.2031 48.7231 15.2031C49.145 15.2031 49.6138 15.1094 49.9888 15.0156C47.7388 14.5469 46.0513 12.5781 46.0513 10.1875V10.1406C46.7075 10.5156 47.5044 10.7031 48.3013 10.75C46.9419 9.85938 46.0981 8.35938 46.0981 6.67188C46.0981 5.73438 46.3325 4.89062 46.7544 4.1875C49.1919 7.14062 52.8481 9.10938 56.9263 9.34375C56.8325 8.96875 56.7856 8.59375 56.7856 8.21875C56.7856 5.5 58.9888 3.29688 61.7075 3.29688C63.1138 3.29688 64.3794 3.85938 65.3169 4.84375C66.395 4.60938 67.4731 4.1875 68.4106 3.625C68.0356 4.79688 67.2856 5.73438 66.2544 6.34375C67.2388 6.25 68.2231 5.96875 69.0669 5.59375C68.4106 6.57812 67.5669 7.42188 66.6294 8.125Z" fill="#00D276"/>
<path d="M118.828 5.59375C120.796 7.5625 122.015 10.1406 122.015 12.9531C122.015 18.6719 117.234 23.3594 111.468 23.3594C109.734 23.3594 108.046 22.8906 106.5 22.0938L101.015 23.5L102.468 18.1094C101.578 16.5625 101.062 14.7812 101.062 12.9062C101.062 7.1875 105.75 2.5 111.468 2.5C114.281 2.5 116.906 3.625 118.828 5.59375ZM111.468 21.5781C116.25 21.5781 120.234 17.6875 120.234 12.9531C120.234 10.6094 119.25 8.45312 117.609 6.8125C115.968 5.17188 113.812 4.28125 111.515 4.28125C106.734 4.28125 102.843 8.17188 102.843 12.9062C102.843 14.5469 103.312 16.1406 104.156 17.5469L104.39 17.875L103.5 21.0625L106.781 20.1719L107.062 20.3594C108.421 21.1562 109.921 21.5781 111.468 21.5781ZM116.25 15.1094C116.484 15.25 116.671 15.2969 116.718 15.4375C116.812 15.5312 116.812 16.0469 116.578 16.6562C116.343 17.2656 115.312 17.8281 114.843 17.875C114 18.0156 113.343 17.9688 111.703 17.2188C109.078 16.0938 107.39 13.4688 107.25 13.3281C107.109 13.1406 106.218 11.9219 106.218 10.6094C106.218 9.34375 106.875 8.73438 107.109 8.45312C107.343 8.17188 107.625 8.125 107.812 8.125C107.953 8.125 108.14 8.125 108.281 8.125C108.468 8.125 108.656 8.07812 108.89 8.59375C109.078 9.10938 109.64 10.375 109.687 10.5156C109.734 10.6562 109.781 10.7969 109.687 10.9844C109.218 11.9688 108.656 11.9219 108.937 12.3906C109.968 14.125 110.953 14.7344 112.5 15.4844C112.734 15.625 112.875 15.5781 113.062 15.4375C113.203 15.25 113.718 14.6406 113.859 14.4062C114.046 14.125 114.234 14.1719 114.468 14.2656C114.703 14.3594 115.968 14.9688 116.25 15.1094Z" fill="#00D276"/>
<path d="M161.532 7.60938C164.485 7.60938 166.923 10.0469 166.923 13C166.923 16 164.485 18.3906 161.532 18.3906C158.532 18.3906 156.142 16 156.142 13C156.142 10.0469 158.532 7.60938 161.532 7.60938ZM161.532 16.5156C163.454 16.5156 165.001 14.9688 165.001 13C165.001 11.0781 163.454 9.53125 161.532 9.53125C159.563 9.53125 158.017 11.0781 158.017 13C158.017 14.9688 159.61 16.5156 161.532 16.5156ZM168.376 7.42188C168.376 8.125 167.813 8.6875 167.11 8.6875C166.407 8.6875 165.845 8.125 165.845 7.42188C165.845 6.71875 166.407 6.15625 167.11 6.15625C167.813 6.15625 168.376 6.71875 168.376 7.42188ZM171.938 8.6875C172.032 10.4219 172.032 15.625 171.938 17.3594C171.845 19.0469 171.47 20.5 170.251 21.7656C169.032 22.9844 167.532 23.3594 165.845 23.4531C164.11 23.5469 158.907 23.5469 157.173 23.4531C155.485 23.3594 154.032 22.9844 152.767 21.7656C151.548 20.5 151.173 19.0469 151.079 17.3594C150.985 15.625 150.985 10.4219 151.079 8.6875C151.173 7 151.548 5.5 152.767 4.28125C154.032 3.0625 155.485 2.6875 157.173 2.59375C158.907 2.5 164.11 2.5 165.845 2.59375C167.532 2.6875 169.032 3.0625 170.251 4.28125C171.47 5.5 171.845 7 171.938 8.6875ZM169.688 19.1875C170.251 17.8281 170.11 14.5469 170.11 13C170.11 11.5 170.251 8.21875 169.688 6.8125C169.313 5.92188 168.61 5.17188 167.72 4.84375C166.313 4.28125 163.032 4.42188 161.532 4.42188C159.985 4.42188 156.704 4.28125 155.345 4.84375C154.407 5.21875 153.704 5.92188 153.329 6.8125C152.767 8.21875 152.907 11.5 152.907 13C152.907 14.5469 152.767 17.8281 153.329 19.1875C153.704 20.125 154.407 20.8281 155.345 21.2031C156.704 21.7656 159.985 21.625 161.532 21.625C163.032 21.625 166.313 21.7656 167.72 21.2031C168.61 20.8281 169.36 20.125 169.688 19.1875Z" fill="#00D276"/>
</svg>
