<svg width="23" height="22" viewBox="0 0 23 22" fill="none" xmlns="http://www.w3.org/2000/svg">
<path d="M11.5322 5.60889C14.4854 5.60889 16.9229 8.04639 16.9229 10.9995C16.9229 13.9995 14.4854 16.3901 11.5322 16.3901C8.53223 16.3901 6.1416 13.9995 6.1416 10.9995C6.1416 8.04639 8.53223 5.60889 11.5322 5.60889ZM11.5322 14.5151C13.4541 14.5151 15.001 12.9683 15.001 10.9995C15.001 9.07764 13.4541 7.53076 11.5322 7.53076C9.56348 7.53076 8.0166 9.07764 8.0166 10.9995C8.0166 12.9683 9.61035 14.5151 11.5322 14.5151ZM18.376 5.42139C18.376 6.12451 17.8135 6.68701 17.1104 6.68701C16.4072 6.68701 15.8447 6.12451 15.8447 5.42139C15.8447 4.71826 16.4072 4.15576 17.1104 4.15576C17.8135 4.15576 18.376 4.71826 18.376 5.42139ZM21.9385 6.68701C22.0322 8.42139 22.0322 13.6245 21.9385 15.3589C21.8447 17.0464 21.4697 18.4995 20.251 19.7651C19.0322 20.9839 17.5322 21.3589 15.8447 21.4526C14.1104 21.5464 8.90723 21.5464 7.17285 21.4526C5.48535 21.3589 4.03223 20.9839 2.7666 19.7651C1.54785 18.4995 1.17285 17.0464 1.0791 15.3589C0.985352 13.6245 0.985352 8.42139 1.0791 6.68701C1.17285 4.99951 1.54785 3.49951 2.7666 2.28076C4.03223 1.06201 5.48535 0.687012 7.17285 0.593262C8.90723 0.499512 14.1104 0.499512 15.8447 0.593262C17.5322 0.687012 19.0322 1.06201 20.251 2.28076C21.4697 3.49951 21.8447 4.99951 21.9385 6.68701ZM19.6885 17.187C20.251 15.8276 20.1104 12.5464 20.1104 10.9995C20.1104 9.49951 20.251 6.21826 19.6885 4.81201C19.3135 3.92139 18.6104 3.17139 17.7197 2.84326C16.3135 2.28076 13.0322 2.42139 11.5322 2.42139C9.98535 2.42139 6.7041 2.28076 5.34473 2.84326C4.40723 3.21826 3.7041 3.92139 3.3291 4.81201C2.7666 6.21826 2.90723 9.49951 2.90723 10.9995C2.90723 12.5464 2.7666 15.8276 3.3291 17.187C3.7041 18.1245 4.40723 18.8276 5.34473 19.2026C6.7041 19.7651 9.98535 19.6245 11.5322 19.6245C13.0322 19.6245 16.3135 19.7651 17.7197 19.2026C18.6104 18.8276 19.3604 18.1245 19.6885 17.187Z" fill="#00D276"/>
</svg>
