<svg width="921" height="706" viewBox="0 0 921 706" fill="none" xmlns="http://www.w3.org/2000/svg">
<path fill-rule="evenodd" clip-rule="evenodd" d="M503.891 701.39C422.025 703.04 344.647 696.613 268.883 675.23C184.066 651.293 89.2956 632.35 41.521 570.899C-8.20344 506.939 -6.17268 422.804 12.2696 345.153C30.5526 268.172 63.0873 183.022 144.18 138.65C222.151 95.9864 321.124 146.249 410.482 127.26C509.793 106.157 549.664 38.5804 668.339 10.6937C756.309 -9.97783 889.225 -4.05292 916.433 73.9447C941.55 145.946 837.941 347.559 825.547 423.759C812.184 505.92 867.402 602.95 795.969 664.606C724.706 726.114 603.98 699.372 503.891 701.39Z" fill="#00D276"/>
</svg>
