<svg width="781" height="264" viewBox="0 0 781 264" fill="none" xmlns="http://www.w3.org/2000/svg">
<path fill-rule="evenodd" clip-rule="evenodd" d="M495.4 700.327C415.122 701.719 339.218 695.052 264.851 673.443C181.598 649.251 88.5982 630.02 41.5535 568.45C-7.41132 504.366 -5.6843 420.281 12.1576 342.727C29.8455 265.843 61.4839 180.84 140.871 136.745C217.201 94.3481 314.42 144.896 401.992 126.198C499.318 105.417 538.206 38.0009 654.5 10.5014C740.706 -9.88305 871.072 -3.54334 898 74.4999C922.858 146.544 821.885 347.727 809.97 423.85C797.123 505.927 851.579 603.081 781.72 664.48C712.028 725.733 593.55 698.625 495.4 700.327Z" fill="#00D276"/>
</svg>
