<svg width="22" height="22" viewBox="0 0 22 22" fill="none" xmlns="http://www.w3.org/2000/svg">
<path d="M17.8276 3.59326C19.7964 5.56201 21.0151 8.14014 21.0151 10.9526C21.0151 16.6714 16.2339 21.3589 10.4683 21.3589C8.73389 21.3589 7.04639 20.8901 5.49951 20.0933L0.0151367 21.4995L1.46826 16.1089C0.577637 14.562 0.0620117 12.7808 0.0620117 10.9058C0.0620117 5.18701 4.74951 0.499512 10.4683 0.499512C13.2808 0.499512 15.9058 1.62451 17.8276 3.59326ZM10.4683 19.5776C15.2495 19.5776 19.2339 15.687 19.2339 10.9526C19.2339 8.60889 18.2495 6.45264 16.6089 4.81201C14.9683 3.17139 12.812 2.28076 10.5151 2.28076C5.73389 2.28076 1.84326 6.17139 1.84326 10.9058C1.84326 12.5464 2.31201 14.1401 3.15576 15.5464L3.39014 15.8745L2.49951 19.062L5.78076 18.1714L6.06201 18.3589C7.42139 19.1558 8.92139 19.5776 10.4683 19.5776ZM15.2495 13.1089C15.4839 13.2495 15.6714 13.2964 15.7183 13.437C15.812 13.5308 15.812 14.0464 15.5776 14.6558C15.3433 15.2651 14.312 15.8276 13.8433 15.8745C12.9995 16.0151 12.3433 15.9683 10.7026 15.2183C8.07764 14.0933 6.39014 11.4683 6.24951 11.3276C6.10889 11.1401 5.21826 9.92139 5.21826 8.60889C5.21826 7.34326 5.87451 6.73389 6.10889 6.45264C6.34326 6.17139 6.62451 6.12451 6.81201 6.12451C6.95264 6.12451 7.14014 6.12451 7.28076 6.12451C7.46826 6.12451 7.65576 6.07764 7.89014 6.59326C8.07764 7.10889 8.64014 8.37451 8.68701 8.51514C8.73389 8.65576 8.78076 8.79639 8.68701 8.98389C8.21826 9.96826 7.65576 9.92139 7.93701 10.3901C8.96826 12.1245 9.95264 12.7339 11.4995 13.4839C11.7339 13.6245 11.8745 13.5776 12.062 13.437C12.2026 13.2495 12.7183 12.6401 12.8589 12.4058C13.0464 12.1245 13.2339 12.1714 13.4683 12.2651C13.7026 12.3589 14.9683 12.9683 15.2495 13.1089Z" fill="#00D276"/>
</svg>
