<svg width="38" height="29" viewBox="0 0 38 29" fill="none" xmlns="http://www.w3.org/2000/svg">
<g opacity="0.9">
<path d="M18.691 13.3464L18.7031 13.3221C21.4018 7.75411 27.1728 0.655321 27.2312 0.58484L27.4395 0.329346V23.586L27.2907 23.5441C27.283 23.5419 26.508 23.3272 25.4133 23.3272C23.364 23.3272 20.5739 24.0452 18.9148 27.4679L18.6921 27.9283V13.3464H18.691Z" fill="#FFA259"/>
<path d="M27.3216 0.658559V23.3502V23.4306C27.3216 23.4306 26.5378 23.2093 25.4123 23.2093C23.4776 23.2093 20.5309 23.8623 18.809 27.4161V13.3727C21.5319 7.75294 27.3216 0.658559 27.3216 0.658559ZM27.5564 0L27.1397 0.509888C27.0813 0.58147 21.3015 7.69017 18.5973 13.2703L18.5742 13.3188V13.3727V27.4161V28.4381L19.0195 27.5185C20.6511 24.1508 23.396 23.4438 25.4123 23.4438C26.4926 23.4438 27.2499 23.6542 27.2577 23.6564L27.5564 23.7401V23.4306V23.3502V0.658559V0Z" fill="white"/>
<path d="M18.691 13.3464L18.7031 13.3222C20.7359 9.12852 29.3445 2.8678 29.7104 2.6035L29.9133 2.45703L29.8968 2.70592C29.8835 2.91075 28.5276 23.1499 28.5199 23.3327L28.5144 23.4439L28.4019 23.445C28.327 23.445 20.9013 23.5012 18.9148 27.6012L18.6921 28.0615V13.3464H18.691Z" fill="#FFE153"/>
<path d="M29.7788 2.69818C29.7788 2.69818 28.4019 23.2677 28.4019 23.3283C28.4019 23.3283 20.8517 23.3349 18.809 27.5505V13.3728C20.8517 9.15823 29.7788 2.69818 29.7788 2.69818ZM30.0467 2.21582L29.6421 2.50876C29.2761 2.77416 20.6433 9.0514 18.5984 13.2715L18.5753 13.3199V13.3739V27.5516V28.5736L19.0206 27.6541C20.0348 25.5605 22.5163 24.5606 24.419 24.0892C26.5113 23.5716 28.3843 23.5628 28.403 23.5628H28.6368V23.3349C28.6588 22.9428 30.0004 2.91733 30.0136 2.7147L30.0467 2.21582Z" fill="white"/>
<path d="M18.691 13.3463L18.7031 13.3221C20.0668 10.5072 31.6914 4.87092 32.1853 4.63304L32.3848 4.53613L32.3518 4.75529C32.3242 4.937 29.6531 22.8315 29.598 23.2324V23.3238L29.501 23.3414C29.4084 23.3579 20.2332 25.012 18.9126 27.7366L18.6899 28.1969V13.3463H18.691Z" fill="#9DD288"/>
<path d="M32.2361 4.73888C32.2361 4.73888 29.4812 23.1862 29.4812 23.2259C29.4812 23.2259 20.1693 24.8756 18.8079 27.686V13.3728C20.1704 10.5635 32.2361 4.73888 32.2361 4.73888ZM32.5337 4.33472L32.1346 4.52744C31.6386 4.76641 19.9797 10.4203 18.5973 13.2715L18.5742 13.32V13.3739V27.686V28.708L19.0195 27.7885C19.5465 26.7004 21.5186 25.6068 24.72 24.6278C27.1761 23.8767 29.4988 23.4616 29.522 23.4572L29.716 23.423V23.2413C29.7954 22.6709 32.4411 4.95363 32.4675 4.77302L32.5337 4.33472Z" fill="white"/>
<path d="M18.691 13.3462L18.7031 13.322C19.3976 11.8893 34.0329 6.87958 34.6558 6.66704L34.8608 6.59766L34.8079 6.8069C34.7671 6.96658 30.8007 22.6376 30.6794 23.1365V23.2103L30.5957 23.2356C27.5299 24.1475 19.4538 26.7564 18.9148 27.8709L18.6921 28.3312V13.3462H18.691Z" fill="#00C2B4"/>
<path d="M34.6944 6.77821C34.6944 6.77821 30.5626 23.1023 30.5626 23.1222C30.5626 23.1222 19.4902 26.4138 18.809 27.8191V13.3726C19.4891 11.9674 34.6944 6.77821 34.6944 6.77821ZM35.0273 6.41699L34.6183 6.55685C34.5797 6.57007 30.7688 7.87287 26.9236 9.32985C24.6626 10.1866 22.8316 10.9289 21.4823 11.5368C19.1661 12.5786 18.7241 13.0114 18.5984 13.2713L18.5753 13.3198V13.3737V27.8202V28.8421L19.0206 27.9226C19.1364 27.6847 19.951 26.9403 25.0187 25.1661C27.8342 24.1805 30.6023 23.3567 30.6299 23.3479L30.7974 23.2984V23.1508C30.9716 22.4438 34.8818 6.99516 34.9226 6.83658L35.0273 6.41699Z" fill="white"/>
<path d="M18.691 13.2812L37.3423 8.65039L31.7333 23.1112L18.691 28.1252V13.2812Z" fill="#7A7E7B"/>
<path d="M37.1516 8.81892L31.643 23.0209L18.809 27.9546V13.3738L37.1516 8.81892ZM37.533 8.48193L37.0943 8.59096L18.7516 13.1458L18.5742 13.1899V13.3727V27.9535V28.2949L18.8927 28.1726L31.7267 23.2389L31.8238 23.2015L31.8612 23.1046L37.3699 8.90262L37.533 8.48193Z" fill="white"/>
<path d="M18.6193 27.4679C16.9613 24.0463 14.17 23.3272 12.1207 23.3272C11.0238 23.3272 10.2511 23.5419 10.2433 23.5441L10.0945 23.586V0.329346L10.3029 0.58484C10.3613 0.656423 16.1323 7.75411 18.8309 13.3221L18.8431 13.3464V27.9272L18.6193 27.4679Z" fill="#FFA259"/>
<path d="M10.2114 0.658559C10.2114 0.658559 16.0011 7.75294 18.724 13.3738V27.4172C17.0021 23.8634 14.0554 23.2104 12.1207 23.2104C10.9952 23.2104 10.2114 23.4317 10.2114 23.4317V23.3513V0.658559ZM9.97769 0V0.658559V23.3502V23.4306V23.7401L10.2764 23.6553C10.2842 23.6531 11.0459 23.4427 12.1218 23.4427C14.137 23.4427 16.8831 24.1497 18.5146 27.5174L18.96 28.437V27.415V13.3727V13.3188L18.9368 13.2703C16.2315 7.69017 10.4517 0.58147 10.3933 0.509888L9.97769 0Z" fill="white"/>
<path d="M18.6193 27.6023C16.6328 23.5023 9.20602 23.4461 9.13106 23.4461H9.01421V23.3294C9.00649 23.151 7.65055 2.91075 7.63732 2.70592L7.62079 2.45703L7.82363 2.6035C8.18962 2.8678 16.7982 9.12852 18.831 13.3222L18.8431 13.3464V28.0615L18.6193 27.6023Z" fill="#FFE153"/>
<path d="M7.7542 2.69818C7.7542 2.69818 16.6824 9.15712 18.7252 13.3728V27.5505C16.6824 23.3349 9.13219 23.3283 9.13219 23.3283C9.13109 23.2677 7.7542 2.69818 7.7542 2.69818ZM7.48743 2.21582L7.5205 2.7147C7.53373 2.91733 8.87423 22.9406 8.89738 23.3349V23.5628H9.13219C9.15093 23.5628 11.0239 23.5716 13.1162 24.0892C15.0189 24.5595 17.5004 25.5605 18.5146 27.6541L18.96 28.5736V27.5516V13.3728V13.3188L18.9368 13.2704C16.8908 9.0514 8.258 2.77416 7.892 2.50876L7.48743 2.21582Z" fill="white"/>
<path d="M18.6193 27.7366C17.2987 25.012 8.12348 23.3579 8.03088 23.3414L7.93387 23.3238V23.2324C7.87985 22.8326 5.20766 4.937 5.1812 4.75529L5.14813 4.53613L5.34766 4.63304C5.84153 4.87202 17.4662 10.5072 18.8299 13.3221L18.842 13.3463V28.1958L18.6193 27.7366Z" fill="#9DD288"/>
<path d="M5.29703 4.73888C5.29703 4.73888 17.3627 10.5635 18.7252 13.3739V27.686C17.3638 24.8756 8.0519 23.2259 8.0519 23.2259C8.0519 23.1851 5.29703 4.73888 5.29703 4.73888ZM4.99939 4.33472L5.06443 4.77302C5.09089 4.95363 7.73662 22.6698 7.81599 23.2413V23.423L8.01001 23.4572C8.03316 23.4616 10.3559 23.8767 12.812 24.6278C16.0145 25.6068 17.9855 26.7004 18.5125 27.7885L18.9578 28.708V27.686V13.3728V13.3189L18.9347 13.2704C17.5534 10.4192 5.89343 4.76641 5.39735 4.52634L4.99939 4.33472Z" fill="white"/>
<path d="M18.6194 27.8709C18.0792 26.7564 10.0042 24.1464 6.93848 23.2356L6.8547 23.2103V23.1365C6.73343 22.6376 2.76704 6.96768 2.72625 6.8069L2.67334 6.59766L2.87838 6.66704C3.50123 6.87958 18.1376 11.8893 18.831 13.322L18.8432 13.3462V28.3301L18.6194 27.8709Z" fill="#00C2B4"/>
<path d="M2.83976 6.77821C2.83976 6.77821 18.0439 11.9674 18.7252 13.3726V27.8191C18.0439 26.4138 6.97151 23.1222 6.97151 23.1222C6.97151 23.1023 2.83976 6.77821 2.83976 6.77821ZM2.50574 6.41699L2.61157 6.83547C2.65125 6.99406 6.56142 22.4427 6.7367 23.1497V23.2973L6.90427 23.3468C6.93183 23.3545 9.70102 24.1805 12.5165 25.165C17.5831 26.938 18.3989 27.6825 18.5135 27.9204L18.9589 28.8399V27.818V13.3726V13.3186L18.9357 13.2702C18.809 13.0092 18.368 12.5775 16.0519 11.5357C14.7015 10.9289 12.8704 10.1866 10.6105 9.32875C6.76536 7.87067 2.95441 6.56897 2.91583 6.55575L2.50574 6.41699Z" fill="white"/>
<path d="M5.80079 23.1112L0.190735 8.65039L18.842 13.2812V28.1252L5.80079 23.1112Z" fill="#4D4E4C"/>
<path d="M0.382529 8.81892L18.7252 13.3738V27.9546L5.89116 23.0209L0.382529 8.81892ZM0 8.48193L0.163153 8.90262L5.67179 23.1046L5.70927 23.2015L5.80628 23.2389L18.6403 28.1726L18.9589 28.2949V27.9535V13.3727V13.1899L18.7814 13.1458L0.43875 8.59096L0 8.48193Z" fill="white"/>
</g>
</svg>
