<svg width="25" height="20" viewBox="0 0 25 20" fill="none" xmlns="http://www.w3.org/2000/svg">
<path d="M21.6294 5.12451C21.6294 5.35889 21.6294 5.54639 21.6294 5.78076C21.6294 12.2964 16.7075 19.7495 7.66064 19.7495C4.84814 19.7495 2.27002 18.9526 0.11377 17.5464C0.48877 17.5933 0.86377 17.6401 1.28564 17.6401C3.58252 17.6401 5.69189 16.8433 7.37939 15.5308C5.22314 15.4839 3.39502 14.0776 2.78564 12.1089C3.11377 12.1558 3.39502 12.2026 3.72314 12.2026C4.14502 12.2026 4.61377 12.1089 4.98877 12.0151C2.73877 11.5464 1.05127 9.57764 1.05127 7.18701V7.14014C1.70752 7.51514 2.50439 7.70264 3.30127 7.74951C1.94189 6.85889 1.09814 5.35889 1.09814 3.67139C1.09814 2.73389 1.33252 1.89014 1.75439 1.18701C4.19189 4.14014 7.84814 6.10889 11.9263 6.34326C11.8325 5.96826 11.7856 5.59326 11.7856 5.21826C11.7856 2.49951 13.9888 0.296387 16.7075 0.296387C18.1138 0.296387 19.3794 0.858887 20.3169 1.84326C21.395 1.60889 22.4731 1.18701 23.4106 0.624512C23.0356 1.79639 22.2856 2.73389 21.2544 3.34326C22.2388 3.24951 23.2231 2.96826 24.0669 2.59326C23.4106 3.57764 22.5669 4.42139 21.6294 5.12451Z" fill="#00D276"/>
</svg>
